<?xml version="1.0" standalone="no"?>
<!DOCTYPE svg PUBLIC "-//W3C//DTD SVG 20010904//EN"
 "http://www.w3.org/TR/2001/REC-SVG-20010904/DTD/svg10.dtd">
<svg version="1.0" xmlns="http://www.w3.org/2000/svg"
 width="300.000000pt" height="138.000000pt" viewBox="0 0 300.000000 138.000000"
 preserveAspectRatio="xMidYMid meet">

<g transform="translate(0.000000,138.000000) scale(0.100000,-0.100000)"
fill="orange" stroke="none">
<path d="M200 1225 c0 -18 83 -128 145 -193 154 -163 389 -297 573 -327 l42
-7 0 60 c0 33 3 73 6 89 l6 29 -379 173 c-208 96 -381 176 -385 178 -5 2 -8 1
-8 -2z"/>
<path d="M2640 1156 c-85 -39 -257 -118 -381 -175 l-227 -103 6 -87 c2 -47 6
-88 8 -90 2 -2 36 5 76 14 200 50 388 161 535 319 69 74 150 182 142 190 -2 3
-74 -28 -159 -68z"/>
<path d="M1225 991 c-82 -50 -95 -92 -95 -293 0 -177 10 -218 61 -265 43 -39
72 -43 315 -43 251 0 265 2 311 52 45 48 53 87 53 255 0 87 -5 174 -10 193
-11 41 -61 94 -103 109 -17 7 -122 11 -265 11 -213 0 -240 -2 -267 -19z"/>
<path d="M160 558 c0 -396 1 -420 18 -413 9 4 195 72 413 152 l395 144 -10 43
-10 43 -69 11 c-222 39 -461 168 -644 348 l-93 92 0 -420z"/>
<path d="M2742 883 c-51 -50 -127 -115 -168 -143 -142 -98 -325 -177 -471
-202 l-69 -11 -10 -43 -10 -42 410 -150 c226 -83 412 -149 414 -148 1 2 1 189
0 417 l-3 414 -93 -92z"/>
</g>
</svg>
